<?xml version="1.0" encoding="UTF-8"?>
<svg xmlns="http://www.w3.org/2000/svg" xmlns:xlink="http://www.w3.org/1999/xlink" width="512px" height="448px" viewBox="0 0 512 448" version="1.1">
<g id="surface1">
<path style=" stroke:none;fill-rule:nonzero;fill:rgb(48.235294%,74.117649%,14.117648%);fill-opacity:1;" d="M 438.757812 245.25 L 438.757812 358.589844 L 324.160156 358.589844 L 324.160156 255.167969 C 324.160156 244.621094 315.660156 236.121094 305.113281 236.121094 L 201.691406 236.121094 C 191.304688 236.121094 182.800781 244.621094 182.800781 255.011719 L 182.800781 358.429688 L 68.207031 358.429688 L 68.207031 249.660156 L 182.800781 156.3125 L 256 96.652344 L 324.003906 152.0625 L 438.601562 245.410156 Z M 438.757812 245.25 "/>
<path style=" stroke:none;fill-rule:nonzero;fill:rgb(48.235294%,74.117649%,14.117648%);fill-opacity:1;" d="M 438.757812 382.671875 L 438.757812 433.832031 C 438.757812 441.546875 432.460938 447.84375 424.746094 447.84375 L 324.160156 447.84375 L 324.160156 382.671875 Z M 438.757812 382.671875 "/>
<path style=" stroke:none;fill-rule:nonzero;fill:rgb(48.235294%,74.117649%,14.117648%);fill-opacity:1;" d="M 76.546875 141.671875 L 68.046875 148.597656 L 9.804688 196.136719 C 3.351562 201.488281 2.25 211.09375 7.601562 217.546875 L 23.816406 237.378906 C 29.167969 243.835938 38.769531 244.9375 45.222656 239.585938 L 68.207031 220.851562 L 165.488281 141.671875 L 238.527344 82.171875 L 256.316406 67.6875 L 273.945312 82.011719 L 347.144531 141.515625 L 438.914062 216.128906 L 466.933594 238.953125 C 473.703125 244.464844 483.777344 243.519531 489.289062 236.59375 L 504.398438 218.019531 C 509.910156 211.25 508.964844 201.175781 502.039062 195.664062 L 438.757812 144.191406 L 435.453125 141.515625 L 383.347656 99.171875 L 347.144531 69.734375 L 318.019531 45.964844 L 270.796875 7.554688 L 265.445312 3.304688 C 259.933594 -1.101562 252.066406 -1.101562 246.554688 3.304688 Z M 76.546875 141.671875 "/>
<path style=" stroke:none;fill-rule:nonzero;fill:rgb(48.235294%,74.117649%,14.117648%);fill-opacity:1;" d="M 292.675781 259.734375 L 213.5 259.734375 C 206.101562 259.734375 200.117188 265.714844 200.117188 273.113281 L 200.117188 448 L 305.898438 448 L 305.898438 273.113281 C 305.898438 265.714844 299.917969 259.734375 292.519531 259.734375 Z M 226.089844 369.136719 C 215.386719 369.136719 206.886719 360.164062 207.675781 349.300781 C 208.304688 340.171875 215.703125 332.773438 224.832031 332.144531 C 235.535156 331.355469 244.507812 340.015625 244.507812 350.5625 C 244.507812 361.109375 236.324219 368.976562 226.089844 368.976562 Z M 226.089844 369.136719 "/>
<path style=" stroke:none;fill-rule:nonzero;fill:rgb(48.235294%,74.117649%,14.117648%);fill-opacity:1;" d="M 413.730469 30.539062 L 413.730469 96.808594 L 409.949219 93.660156 L 347.300781 42.660156 L 347.300781 30.382812 C 347.300781 19.835938 355.800781 11.332031 366.347656 11.332031 L 394.839844 11.332031 C 405.386719 11.332031 413.886719 19.835938 413.886719 30.382812 Z M 413.730469 30.539062 "/>
<path style=" stroke:none;fill-rule:nonzero;fill:rgb(48.235294%,74.117649%,14.117648%);fill-opacity:1;" d="M 182.800781 382.515625 L 182.800781 448 L 82.214844 448 C 74.5 448 68.207031 441.703125 68.207031 433.988281 L 68.207031 382.515625 Z M 182.800781 382.515625 "/>
</g>
</svg>
